<svg id="Capa_1" enable-background="new 0 0 496.996 496.996" height="512" viewBox="0 0 496.996 496.996" width="512" xmlns="http://www.w3.org/2000/svg"><g><path d="m453.062 43.934-212.132 212.132c58.579 58.579 153.553 58.579 212.132 0s58.579-153.553 0-212.132z" fill="#25d4f2"/><path d="m431.849 234.853c58.579-58.579 68.076-144.056 21.213-190.919-58.579-58.579-153.553-58.579-212.132 0s-58.579 153.553 0 212.132c46.863 46.863 132.34 37.365 190.919-21.213z" fill="#6ee2f6"/><path d="m3.928 470.919-2.142 3.981c-3.055 5.68-2.191 12.912 2.604 17.707s12.027 5.659 17.707 2.604l182.701-98.311-92.113-26.006z" fill="#ff7a3c"/><path d="m279.821 217.175-167.136 153.718c28.664 15.885 60.253 24.555 92.113 26.006l165.625-89.123z" fill="#ff9a42"/><path d="m73.069 342.427-69.141 128.492 152.348-81.978z" fill="#ff9a42"/><path d="m189.219 126.574-116.15 215.853c24.539 22.368 53.095 37.869 83.207 46.514l191.997-103.314z" fill="#ffba48"/><path d="m405.332 293.189c-5.081-5.081-9.593-7.647-13.884-9.229l-49.756 30.442 21.213 21.213c11.716 11.716 30.711 11.716 42.426 0s11.717-30.71.001-42.426z" fill="#6ee2f6"/><path d="m384.119 314.402c8.237-8.237 10.674-20.069 7.329-30.442-9.893-3.649-18.598-2.039-30.312-13.753-16.795-16.795-6.188-27.401-22.983-44.196-16.794-16.794-27.401-6.187-44.195-22.981-16.793-16.793-6.187-27.4-22.98-44.193s-27.399-6.186-44.192-22.979-6.187-27.4-22.98-44.193c-11.716-11.716-30.711-11.716-42.426 0s-11.716 30.711 0 42.426l68.943 68.943c11.716 11.716 11.716 30.711 0 42.426l-31.52 31.52c-5.711 5.711-6.236 15.014-.8 20.988 5.804 6.378 15.686 6.553 21.714.525l31.82-31.82c11.716-11.716 30.711-11.716 42.426 0l47.73 47.73c11.716 11.715 30.71 11.715 42.426-.001z" fill="#b6f1fb"/></g></svg>